<svg version="1.1" id="Layer_1" xmlns="http://www.w3.org/2000/svg" x="0" y="0" viewBox="0 0 122 113" xml:space="preserve"><style>.st0{fill:#ebebeb}.st1{fill:#58595b}.st2{fill:#f58220}</style><g id="Home-V2---desktop" transform="translate(-400 -1319)"><g id="Page-1" transform="translate(400 1319)"><path id="Fill-1" class="st0" d="M108 20.6c0 6.5-5.2 11.7-11.7 11.7-6.5 0-11.7-5.2-11.7-11.7S89.8 8.9 96.3 8.9c6.4 0 11.7 5.3 11.7 11.7"/><path id="Fill-3" class="st0" d="M61.9 102.8c0 4.7-3.8 8.5-8.5 8.5s-8.5-3.8-8.5-8.5 3.8-8.5 8.5-8.5 8.5 3.8 8.5 8.5"/><path id="Fill-5" class="st0" d="M86.6 57.6c.3-2.4 0-5.1-1.3-7.8-2.1-4.2-6.1-7.4-10.8-8-5.7-.7-10.8 1.9-13.6 6.3-.7 1.1-2.2 1.3-3.3.5-1.6-1.1-3.5-1.7-5.5-1.7-2.5 0-5.1 1-6.9 2.8-3 3.1-3.2 5.9-2.9 8.2.1 1-.4 2-1.3 2.5-3.8 2.1-6.3 6.2-6 10.9.4 6.3 6 11 12.3 11l35.1-.1c5.8 0 11.1-4.1 12-9.8.9-5.4-2.1-10.3-6.5-12.4-1-.5-1.5-1.4-1.3-2.4"/><path class="st1" d="M46.9 83.1c-6.9 0-12.6-5.1-13-11.7-.3-4.8 2.1-9.3 6.4-11.6.7-.4 1.1-1.1 1-1.8-.1-.4-.1-.8-.1-1.2 0-.4.3-.8.7-.8.4 0 .8.3.8.7 0 .4 0 .7.1 1.1.2 1.3-.5 2.6-1.7 3.3-3.7 2.1-5.9 6-5.6 10.2.4 5.8 5.4 10.3 11.5 10.3h9.3c.4 0 .7.3.8.7 0 .4-.3.8-.7.8h-9.5zm-3.6-30.6c-.1 0-.3 0-.4-.1-.3-.2-.5-.7-.2-1 .5-.7 1-1.4 1.7-2.1 1.8-1.9 4.6-3 7.4-3 2.1 0 4.2.6 6 1.8.4.3.9.4 1.3.3.3-.1.7-.2.9-.6 3.1-4.8 8.6-7.3 14.3-6.6 1.3.2 2.7.5 3.9 1.1.4.2.5.6.4 1-.2.4-.6.5-1 .4-1.1-.5-2.3-.8-3.5-1-5.1-.8-10.1 1.5-12.9 5.8-.4.7-1.1 1.1-1.9 1.3-.8.2-1.7 0-2.5-.5-1.5-1-3.3-1.6-5.1-1.6-2.4 0-4.8 1-6.3 2.6-.6.6-1.1 1.3-1.5 1.9-.1.1-.4.3-.6.3zM93.7 68c-.3 0-.6-.2-.7-.5-.9-3-3-5.5-5.8-6.8-1.2-.6-1.9-1.8-1.7-3.2.3-2.5-.1-5-1.2-7.4-.6-1.1-1.3-2.2-2.1-3.1-.3-.3-.2-.8.1-1.1.3-.3.8-.2 1.1.1.9 1.1 1.7 2.2 2.3 3.5 1.3 2.7 1.7 5.4 1.4 8.3-.1.7.2 1.3.8 1.6 3.2 1.5 5.6 4.4 6.6 7.7.1.4-.1.8-.5.9h-.3zM63.5 83c-.4 0-.7-.3-.8-.7 0-.4.3-.8.7-.8l18.6-.1c5.1 0 9.6-3.3 11-7.9.1-.4.5-.6.9-.5.4.1.6.5.5.9-1.5 5.3-6.6 9-12.4 9l-18.5.1zm15.1-36c-.1 0-.3 0-.4-.1-.3-.2-.4-.7-.2-1l11-16c.2-.3.7-.4 1-.2s.4.7.2 1l-11 16c-.1.2-.3.3-.6.3z"/><path class="st2" d="M57.7 37.2c-.3 0-.6-.2-.7-.6L54 24c-.1-.4.2-.8.6-.9.4-.1.8.2.9.6l3 12.6c.1.4-.2.8-.6.9h-.2zm1.4 6.2c-.3 0-.6-.2-.7-.6l-.4-1.7c-.1-.4.2-.8.6-.9.4-.1.8.2.9.6l.4 1.7c.1.4-.2.8-.6.9h-.2z"/><path class="st1" d="M44.6 56c-.1 0-.2 0-.3-.1l-13-6.5c-.4-.2-.5-.6-.3-1s.6-.5 1-.3l13 6.5c.4.2.5.6.3 1-.2.2-.4.4-.7.4zM23.9 75.5c-.3 0-.7-.2-.7-.6-.1-.4.2-.8.6-.9l7.2-1.6c.4-.1.8.2.9.6s-.2.8-.6.9l-7.2 1.6h-.2zm37.4 3.2h-.2c-.4-.1-.6-.6-.5-.9l.6-1.8c.1-.4.6-.6.9-.5.4.1.6.6.5.9l-.6 1.8c-.1.3-.4.5-.7.5z"/><path class="st2" d="M82.1 91.9c-.3 0-.5-.1-.6-.4l-3.6-6c-.2-.4-.1-.8.3-1 .4-.2.8-.1 1 .3l3.6 6c.2.4.1.8-.3 1-.1.1-.2.1-.4.1z"/><path class="st1" d="M102.4 72.8h-.1l-9.6-1.7c-.4-.1-.7-.5-.6-.9.1-.4.5-.7.9-.6l9.6 1.7c.4.1.7.5.6.9-.2.3-.5.6-.8.6zm-12.8-2.2h-.1l-1.8-.3c-.4-.1-.7-.5-.6-.9.1-.4.5-.7.9-.6l1.8.3c.4.1.7.5.6.9-.1.3-.4.6-.8.6z"/><path class="st1" d="M107.5 82.8c-.1 0-.2 0-.3-.1-3.5-1.6-5.7-5.2-5.7-9 0-.6.1-1.2.2-1.8.1-.4.5-.7.9-.6.4.1.7.5.6.9-.1.5-.1 1-.1 1.5 0 3.2 1.9 6.2 4.8 7.6.4.2.5.6.4 1-.3.3-.6.5-.8.5z"/><path class="st1" d="M119 79.6c-.1 0-.3 0-.4-.1-.3-.2-.4-.7-.2-1 .9-1.4 1.4-3 1.4-4.7 0-4.6-3.8-8.4-8.4-8.4-4.1 0-7.5 2.9-8.3 6.9-.1.4-.5.7-.9.6-.4-.1-.7-.5-.6-.9.9-4.7 5-8.1 9.8-8.1 5.5 0 9.9 4.5 9.9 9.9 0 2-.6 3.9-1.7 5.6-.1.1-.4.2-.6.2zM96.3 33.1c-6.9 0-12.4-5.6-12.4-12.4S89.4 8.2 96.3 8.2s12.4 5.6 12.4 12.4-5.6 12.5-12.4 12.5zm0-23.4c-6 0-10.9 4.9-10.9 10.9s4.9 10.9 10.9 10.9 10.9-4.9 10.9-10.9-4.9-10.9-10.9-10.9zm-71 43.7c-4.3 0-7.7-3.5-7.7-7.7 0-4.3 3.5-7.7 7.7-7.7 4.3 0 7.7 3.5 7.7 7.7.1 4.2-3.4 7.7-7.7 7.7zm0-13.9c-3.4 0-6.2 2.8-6.2 6.2 0 3.4 2.8 6.2 6.2 6.2 3.4 0 6.2-2.8 6.2-6.2.1-3.5-2.7-6.2-6.2-6.2zm30.8 56h-.2c-.4-.1-.6-.5-.5-.9l4.1-13.4c.1-.4.5-.6.9-.5.4.1.6.5.5.9L56.8 95c-.1.3-.4.5-.7.5z"/><path class="st1" d="M53.4 112.1c-5.1 0-9.3-4.2-9.3-9.3 0-5.1 4.2-9.3 9.3-9.3 5.1 0 9.3 4.2 9.3 9.3 0 5.1-4.2 9.3-9.3 9.3zm0-17c-4.3 0-7.8 3.5-7.8 7.8s3.5 7.8 7.8 7.8 7.8-3.5 7.8-7.8-3.5-7.8-7.8-7.8z"/><path class="st2" d="M52.1 24.9c-1.3 0-2.5-.2-3.8-.6-6.5-2.1-10.2-9.1-8.1-15.6 1-3.2 3.2-5.7 6.1-7.3 3-1.5 6.3-1.8 9.5-.8s5.7 3.2 7.3 6.1c1.5 3 1.8 6.3.8 9.5s-3.2 5.7-6.1 7.3c-1.8.9-3.7 1.4-5.7 1.4zm0-23.4c-1.7 0-3.4.4-5 1.2-2.6 1.3-4.5 3.6-5.4 6.4-1.9 5.8 1.3 11.9 7.1 13.8 2.8.9 5.7.6 8.3-.7s4.5-3.6 5.4-6.4c.9-2.8.6-5.7-.7-8.3-1.3-2.6-3.6-4.5-6.4-5.4a9.6 9.6 0 00-3.3-.6z"/><path class="st1" d="M12.4 89.8C6.2 89.8.8 85 .1 78.6c-.4-3.3.6-6.5 2.7-9.1 2.1-2.6 5.1-4.2 8.4-4.6 3.3-.4 6.5.6 9.1 2.7 2.6 2.1 4.2 5.1 4.6 8.4.7 6.8-4.2 13-11 13.7-.6 0-1 .1-1.5.1zm.1-23.4c-.4 0-.8 0-1.2.1-2.9.3-5.5 1.7-7.3 4-1.8 2.3-2.7 5.1-2.4 8 .6 6 6.1 10.4 12 9.7 6-.6 10.3-6.1 9.7-12-.3-2.9-1.7-5.5-4-7.3-2-1.7-4.4-2.5-6.8-2.5z"/><path class="st2" d="M85.1 102.9c-.6 0-1.3-.1-1.9-.3-3.5-1-5.6-4.8-4.5-8.3.5-1.7 1.6-3.1 3.2-4 1.6-.9 3.4-1 5.1-.5 1.7.5 3.1 1.6 4 3.2.9 1.6 1 3.4.5 5.1-.8 2.9-3.5 4.8-6.4 4.8zm0-11.8c-.9 0-1.7.2-2.5.6-1.2.7-2.1 1.8-2.5 3.1-.8 2.7.8 5.6 3.5 6.4 2.7.8 5.6-.8 6.4-3.5.4-1.3.2-2.7-.4-3.9-.7-1.2-1.8-2.1-3.1-2.5-.4-.1-.9-.2-1.4-.2zm27.7.4c-.1 0-.2 0-.3-.1-.2-.1-.4-.3-.4-.6l-2.1-14c0-.3.1-.6.4-.8.3-.1.6-.1.9.1l10.4 9.7c.2.2.3.4.2.6 0 .2-.2.5-.4.6l-8.3 4.3c-.1.1-.3.2-.4.2zm-1-12.8l1.6 10.8 6.4-3.4-8-7.4z"/><path class="st2" d="M119.6 94.3c-.3 0-.5-.1-.7-.4l-2.7-5c-.2-.4-.1-.8.3-1 .4-.2.8-.1 1 .3l2.7 5c.2.4.1.8-.3 1-.1.1-.2.1-.3.1z"/></g></g></svg>