<svg version="1.1" id="Layer_1" xmlns="http://www.w3.org/2000/svg" x="0" y="0" viewBox="0 0 120 142" xml:space="preserve"><style>.st0{fill:#ebebeb}.st1{fill:#f58220}.st2{fill:#575756}.st4{fill:#b1b3b6}</style><g id="Home-V2---desktop_1_" transform="translate(-978 -968)"><g id="Page-1_1_" transform="translate(978 968)"><path id="Fill-1_1_" class="st0" d="M62.3 68.5l8.4-4-3-9.3-17.3-3.5"/><path id="Fill-3_1_" class="st0" d="M52 78.9l-4.1 8.3-9.3-2.9-3.5-17.4"/><path class="st1" d="M72.7 90.8c-2.4 0-9.8-.5-15.3-6.7-.3-.3-.2-.8.1-1.1.3-.3.8-.2 1.1.1 5.1 5.7 12 6.2 14.2 6.2 0-2.2-.5-9.1-6.2-14.2-.3-.3-.3-.8-.1-1.1.3-.3.8-.3 1.1-.1 7.3 6.5 6.7 15.7 6.7 16.1 0 .4-.3.7-.7.7-.2 0-.4.1-.9.1z"/><path class="st2" d="M53.5 79.9H53c-1.3-.2-32.3-22.9-32.6-23.2-3.8-3-16.3-14.7-16.5-35.5 0-.2.1-.4.2-.5.1-.1.3-.2.5-.2 20.9.1 32.5 12.6 35.6 16.5.2.3 22.9 31.3 23.2 32.6.4 2.6-2.6 5.9-3.5 6.8-1 .8-3.9 3.5-6.4 3.5zm-.2-1.5c1.5.2 3.8-1.4 5.5-3.1 1.7-1.7 3.3-4 3.1-5.5C60.8 68 41.8 41.3 39 37.9 36.1 34.3 25 22.4 5.4 22c.4 19.6 12.2 30.6 15.9 33.6 3.5 2.7 30.1 21.8 32 22.8z"/><path d="M86.3 103.6c-.2 0-.4-.1-.5-.2l-8.5-8.5c-.3-.3-.3-.8 0-1.1s.8-.3 1.1 0l8.5 8.5c.3.3.3.8 0 1.1-.2.1-.4.2-.6.2zm7.1 7.1c-.2 0-.4-.1-.5-.2l-2.9-2.9c-.3-.3-.3-.8 0-1.1s.8-.3 1.1 0l2.9 2.9c.3.3.3.8 0 1.1-.2.1-.4.2-.6.2z" fill="#9a9a9a"/><path class="st2" d="M60.4 21.4c-.2 0-.4-.1-.5-.2L56 17.4c-.3-.3-.3-.8 0-1.1s.8-.3 1.1 0l3.8 3.8c.3.3.3.8 0 1.1-.2.1-.4.2-.5.2z"/><path class="st2" d="M55.6 22c-.2 0-.4-.1-.5-.2-.3-.3-.3-.8 0-1.1l4.3-4.3c.3-.3.8-.3 1.1 0s.3.8 0 1.1l-4.3 4.3c-.2.1-.4.2-.6.2z"/><path class="st4" d="M118.7 39.1c-.2 0-.4-.1-.5-.2l-3.8-3.8c-.3-.3-.3-.8 0-1.1s.8-.3 1.1 0l3.8 3.8c.3.3.3.8 0 1.1-.2.1-.4.2-.6.2z"/><path class="st4" d="M114 39.7c-.2 0-.4-.1-.5-.2-.3-.3-.3-.8 0-1.1l4.3-4.3c.3-.3.8-.3 1.1 0s.3.8 0 1.1l-4.3 4.3c-.2.1-.4.2-.6.2zM1.3 71.9c-.2 0-.4-.1-.5-.2-.3-.3-.3-.8 0-1.1l3.8-3.8c.3-.3.8-.3 1.1 0s.3.8 0 1.1l-3.8 3.8c-.2.1-.4.2-.6.2z"/><path class="st4" d="M5 71.4c-.2 0-.4-.1-.5-.2L.2 66.9c-.3-.3-.3-.8 0-1.1s.8-.3 1.1 0l4.3 4.3c.3.3.3.8 0 1.1-.2.2-.4.2-.6.2z"/><path class="st2" d="M31.9 141.9c-.2 0-.4-.1-.5-.2l-3.8-3.8c-.3-.3-.3-.8 0-1.1s.8-.3 1.1 0l3.8 3.8c.3.3.3.8 0 1.1-.2.1-.4.2-.6.2z"/><path class="st2" d="M28.6 141.8c-.2 0-.4-.1-.5-.2-.3-.3-.3-.8 0-1.1l4.3-4.3c.3-.3.8-.3 1.1 0s.3.8 0 1.1l-4.3 4.3c-.3.1-.4.2-.6.2zM24.2 6.2c-.2 0-.4-.1-.5-.2-.3-.3-.3-.8 0-1.1l3.8-3.8c.3-.3.8-.3 1.1 0s.3.8 0 1.1L24.8 6c-.2.2-.4.2-.6.2z"/><path class="st2" d="M28 5.8c-.2 0-.4-.1-.5-.2l-4.3-4.3c-.3-.3-.3-.8 0-1.1s.8-.3 1.1 0l4.3 4.3c.3.3.3.8 0 1.1-.3.1-.5.2-.6.2z"/><path class="st1" d="M24.1 45.3c-1.2 0-2.4-.5-3.3-1.4-.9-.9-1.4-2.1-1.4-3.3s.5-2.4 1.4-3.3c.9-.9 2.1-1.4 3.3-1.4s2.4.5 3.3 1.4c1.8 1.8 1.8 4.8 0 6.6-.9.9-2 1.4-3.3 1.4zm0-7.8c-.8 0-1.6.3-2.2.9-.6.6-.9 1.4-.9 2.2s.3 1.6.9 2.2c1.2 1.2 3.3 1.2 4.5 0l.5.5-.5-.5c1.2-1.2 1.2-3.3 0-4.5-.6-.5-1.4-.8-2.3-.8zm9.7 16.6c-1 0-1.9-.4-2.7-1.1-.7-.7-1.1-1.7-1.1-2.7s.4-2 1.1-2.7c1.5-1.5 3.9-1.5 5.3 0 .7.7 1.1 1.7 1.1 2.7s-.4 2-1.1 2.7l-.5-.5.5.5c-.7.7-1.7 1.1-2.6 1.1zm0-6.1c-.6 0-1.2.2-1.6.7-.4.4-.7 1-.7 1.6s.2 1.2.7 1.6c.9.9 2.3.9 3.2 0 .4-.4.7-1 .7-1.6s-.2-1.2-.7-1.6c-.5-.4-1-.7-1.6-.7z"/><path class="st2" d="M62.3 69.3c-.3 0-.5-.2-.7-.4-.2-.4 0-.8.3-1l7.7-3.7-2.6-8.3-16.9-3.4c-.4-.1-.7-.5-.6-.9s.5-.7.9-.6l17.4 3.5c.3.1.5.2.6.5l2.9 9.3c.1.4-.1.7-.4.9l-8.3 4s-.1.1-.3.1zM47.9 87.9h-.2L38.4 85c-.3-.1-.5-.3-.5-.6L34.4 67c-.1-.4.2-.8.6-.9.4-.1.8.2.9.6l3.4 16.9 8.3 2.6 3.7-7.7c.2-.4.6-.5 1-.3s.5.6.3 1l-4 8.3c-.1.3-.4.4-.7.4z"/></g></g></svg>