<svg version="1.1" id="Layer_1" xmlns="http://www.w3.org/2000/svg" x="0" y="0" viewBox="0 0 129 137" xml:space="preserve" enable-background="new 0 0 129 137"><style>.st0{fill:#f58220}.st4{fill:#ebebeb}.st5{fill:#575756}.st6{fill:#9a9a9a}.st7{fill:#bcbcbb}</style><g id="Home-V2---desktop" transform="translate(-176 -983)"><g id="Page-1" transform="translate(176 982)"><path class="st0" d="M103.3 61.6c-.2 0-.4-.1-.5-.2-.3-.3-.3-.8 0-1.1l24.6-24.7c.3-.3.8-.3 1.1 0 .3.3.3.8 0 1.1l-24.6 24.7c-.2.1-.4.2-.6.2zM82.9 82c-.2 0-.4-.1-.5-.2-.3-.3-.3-.8 0-1.1l5.1-5.2c.3-.3.8-.3 1.1 0 .3.3.3.8 0 1.1l-5.1 5.2c-.2.2-.4.2-.6.2zm-22.7 2.3H60l-8.3-2.9c-.4-.1-.6-.6-.5-1 .1-.4.6-.6 1-.5l8.3 2.9c.4.1.6.6.5 1-.2.3-.5.5-.8.5zm-52 8.5c-.3 0-.5-.1-.7-.4-.2-.4 0-.8.3-1l26.5-13.7c.4-.2.8 0 1 .3.2.4 0 .8-.3 1L8.5 92.8h-.3z"/><g id="Group-93" transform="translate(0 .883)"><path class="st0" d="M.8 95.8c-.3 0-.5-.1-.7-.4-.2-.4 0-.8.3-1L3.2 93c.4-.2.8 0 1 .3.2.4 0 .8-.3 1l-2.8 1.4c-.1.1-.2.1-.3.1zm127.1-54.9c-.4 0-.7-.3-.8-.7V36h-4.2c-.4 0-.7-.3-.8-.7 0-.4.3-.8.7-.8h4.9c.4 0 .7.3.8.7v4.9c.1.5-.2.8-.6.8z"/><g id="Group-12" transform="translate(21 136)"><defs><filter id="Adobe_OpacityMaskFilter" filterUnits="userSpaceOnUse" x="-.5" y="-.5" width="104.7" height="1.5"><feColorMatrix values="1 0 0 0 0 0 1 0 0 0 0 0 1 0 0 0 0 0 1 0"/></filter></defs><mask maskUnits="userSpaceOnUse" x="-.5" y="-.5" width="104.7" height="1.5" id="mask-2_3_"><g filter="url(#Adobe_OpacityMaskFilter)"><path id="path-1_3_" fill="#fff" d="M.2.2h103.2V1H.2z"/></g></mask><path d="M103.4 1H.2C-.2 1-.6.7-.6.2s.3-.8.8-.8h103.2c.4 0 .8.3.8.8s-.4.8-.8.8z" mask="url(#mask-2_3_)" fill="#575756"/></g><path id="Fill-13" class="st4" d="M70.2 1C57 2.4 46.9 12.9 45.9 26.2c-.4 5 .7 9.8 2.7 14 .6 1.2 1.8 1.9 3.1 1.9h42.8c1.3 0 2.5-.7 3.1-1.9 1.8-3.6 2.8-7.7 2.8-12C100.4 12.1 86.6-.7 70.2 1"/><path class="st5" d="M94.5 42.8H51.8c-1.6 0-3.1-.9-3.8-2.3-2.2-4.4-3.1-9.4-2.8-14.4C46.2 12.5 56.6 1.7 70.1.2l.1.8-.1-.7c8.1-.9 15.8 1.6 21.8 7 5.9 5.3 9.3 12.9 9.3 20.8 0 4.3-1 8.5-2.9 12.4-.7 1.4-2.2 2.3-3.8 2.3zm-24.2-41C57.5 3.1 47.6 13.4 46.7 26.2c-.3 4.7.6 9.4 2.6 13.6.4.9 1.4 1.5 2.4 1.5h42.8c1 0 2-.6 2.4-1.5 1.8-3.7 2.7-7.6 2.7-11.7 0-7.5-3.2-14.7-8.8-19.7C85.2 3.3 77.9 1 70.3 1.8z"/><path class="st6" d="M55.1 34.4c-.3 0-.6-.2-.7-.5-.7-2.3-1-4.7-.8-7.1.7-9.7 7.8-17.1 17.4-18.1 11.8-1.2 21.8 8 21.8 19.5 0 2-.3 3.9-.8 5.7-.1.4-.5.6-.9.5-.4-.1-.6-.5-.5-.9.5-1.7.8-3.5.8-5.3 0-10.6-9.2-19.2-20.1-18-8.8.9-15.4 7.8-16.1 16.7-.2 2.2.1 4.5.7 6.6.1.4-.1.8-.5.9h-.3z"/><path class="st7" d="M103.8 107.7H91.9c-.4 0-.8-.3-.8-.8s.3-.8.8-.8h11.9c.4 0 .8.3.8.8s-.4.8-.8.8z"/><path class="st5" d="M102 67.8c-1.7 0-3.7-.1-4.5-.3-1.6-.5-2.6-3-2.7-3.3-.1-.4.1-.8.5-1s.8.1 1 .5c.2.7 1 2.2 1.7 2.4.9.3 4.6.3 6.8.2.4 0 .8.3.8.7 0 .4-.3.8-.7.8H102zm6.1 57H87.6c-.2 0-.4-.1-.6-.3-.1-.2-.2-.4-.1-.6l4.3-17.2-2.9-14.9c-.4-1.8 0-3.7 1.2-5.1 1.2-1.4 2.9-2.3 4.8-2.3h7.2c1.9 0 3.6.8 4.8 2.3s1.6 3.3 1.2 5.1l-2.9 14.9 4.3 17.2c.1.2 0 .5-.1.6-.2.2-.5.3-.7.3zm-19.5-1.5h18.6l-4.1-16.4v-.3l2.9-15c.3-1.4 0-2.8-.9-3.9s-2.2-1.7-3.6-1.7h-7.2c-1.4 0-2.7.6-3.6 1.7-.9 1.1-1.2 2.5-.9 3.9l2.9 15.1v.3l-4.1 16.3z"/><path class="st5" d="M94.1 136.8c-.4 0-.8-.3-.8-.8v-12c0-.4.3-.8.8-.8s.8.3.8.8v12.1c-.1.4-.4.7-.8.7zm7.9 0c-.4 0-.8-.3-.8-.8v-12c0-.4.3-.8.8-.8s.8.3.8.8v12.1c-.1.4-.4.7-.8.7zm-4.1-57.3c-4.6 0-7.8-5.3-7.8-10 0-1.8.2-4.1 1.9-5.8 1.5-1.5 3.5-2.3 6-2.3 2.4 0 4.5.8 5.9 2.2 1.7 1.7 1.9 4.1 1.9 5.9-.1 4.7-3.3 10-7.9 10zm0-16.6c-2 0-3.7.6-4.9 1.8-1 1-1.4 2.5-1.4 4.8 0 4 2.7 8.5 6.3 8.5s6.3-4.5 6.3-8.5c0-2.3-.5-3.8-1.5-4.8-1.1-1.2-2.8-1.8-4.8-1.8z"/><path class="st5" d="M104.7 78.8c-.1 0-.3 0-.4-.1l-1.8-1.1c-.4-.2-.5-.7-.2-1 .2-.3.7-.5 1-.2l.2.1c-.2-1.7.1-3.3.2-3.4.1-.4.5-.7.9-.6.4.1.7.5.6.9 0 0-.5 2.7.2 4.4.1.3.1.7-.2.9-.2 0-.3.1-.5.1zm-13.6 0c-.2 0-.4-.1-.5-.2-.2-.2-.3-.6-.2-.9.6-1.4.4-3.7.2-4.4-.1-.4.2-.8.6-.9.4-.1.8.2.9.6 0 .1.3 1.7.2 3.4l.2-.1c.4-.2.8-.1 1 .2.2.4.1.8-.2 1l-1.8 1.1c-.1.2-.2.2-.4.2z"/><path id="Fill-35" class="st4" d="M67.2 81.8c-3.3.7-5.9 3.6-5.9 7.2v18.8c0 1.9 1.5 3.4 3.4 3.4H81c1.8 0 3.3-1.5 3.3-3.3V89c0-3.5-2.5-6.5-5.9-7.2"/><path class="st5" d="M84.3 89.7c-.4 0-.8-.3-.8-.8 0-3.1-2.2-5.8-5.3-6.5-.4-.1-.7-.5-.6-.9.1-.4.5-.7.9-.6 3.7.8 6.5 4.1 6.5 7.9 0 .6-.3.9-.7.9z"/><path class="st5" d="M81 111.9H64.7c-2.3 0-4.1-1.8-4.1-4.1V89c0-3.8 2.7-7.2 6.5-7.9.4-.1.8.2.9.6.1.4-.2.8-.6.9-3 .6-5.3 3.3-5.3 6.5v18.8c0 1.4 1.2 2.6 2.6 2.6H81c1.4 0 2.5-1.1 2.5-2.5V89c0-3.1-2.2-5.8-5.3-6.5-.4-.1-.7-.5-.6-.9.1-.4.5-.7.9-.6 3.7.8 6.5 4.1 6.5 7.9v18.9c0 2.3-1.8 4.1-4 4.1z"/><path class="st5" d="M84.3 104.8H61.4c-.4 0-.8-.3-.8-.8s.3-.8.8-.8h22.9c.4 0 .8.3.8.8s-.4.8-.8.8zm-19.6 31.9c-.4 0-.8-.3-.8-.8v-24.8c0-.4.3-.8.8-.8s.8.3.8.8v24.8c0 .4-.4.8-.8.8zm16.6 0c-.4 0-.8-.3-.8-.8v-24.8c0-.4.3-.8.8-.8s.8.3.8.8v24.8c-.1.4-.4.8-.8.8zm-8.4-61.4c-5.1 0-8.7-5.8-8.7-11.1 0-2 .2-4.6 2.1-6.4 1.6-1.6 3.9-2.5 6.6-2.5 2.7 0 4.9.8 6.5 2.4 1.9 1.9 2.1 4.5 2.1 6.5 0 5.3-3.5 11.1-8.6 11.1zm0-18.5c-2.3 0-4.2.7-5.5 2.1-1.1 1.2-1.6 2.8-1.6 5.4 0 4.5 3.1 9.6 7.2 9.6s7.2-5.1 7.2-9.6c0-2.6-.5-4.3-1.7-5.5-1.5-1.4-3.3-2-5.6-2z"/><path class="st5" d="M69.8 62.2c-1.7 0-3.3 0-3.9-.1-.4 0-.7-.4-.7-.8s.3-.7.8-.7c3 .1 8.1.1 9.1-.2.9-.3 1.7-2 2-2.7.1-.4.6-.6 1-.5.4.1.6.6.5 1-.1.3-1.1 3.1-2.9 3.7-1 .3-3.6.3-5.9.3z"/><path class="st7" d="M72.9 84.3c-1.4 0-2.6-1.2-2.6-2.6 0-1.4 1.2-2.6 2.6-2.6s2.6 1.2 2.6 2.6c0 1.4-1.2 2.6-2.6 2.6zm0-3.8c-.6 0-1.1.5-1.1 1.1 0 .6.5 1.1 1.1 1.1s1.1-.5 1.1-1.1c0-.6-.5-1.1-1.1-1.1z"/><path class="st7" d="M72.9 95.2c-.4 0-.8-.3-.8-.8V83.5c0-.4.3-.8.8-.8s.8.3.8.8v10.9c-.1.5-.4.8-.8.8z"/><path class="st5" d="M55.2 92.2c-.4 0-.8-.3-.8-.8 0-2.9-2.1-5.5-5-6.1-.4-.1-.7-.5-.6-.9.1-.4.5-.7.9-.6 3.6.7 6.2 3.9 6.2 7.6.1.5-.3.8-.7.8z"/><path class="st5" d="M52.1 113.3H36.7c-2.2 0-3.9-1.8-3.9-3.9V91.5c0-3.6 2.6-6.8 6.2-7.6.4-.1.8.2.9.6.1.4-.2.8-.6.9-2.9.6-5 3.1-5 6.1v17.9c0 1.3 1.1 2.4 2.4 2.4h15.4c1.3 0 2.4-1.1 2.4-2.4V91.5c0-2.9-2.1-5.5-5-6.1-.4-.1-.7-.5-.6-.9.1-.4.5-.7.9-.6 3.6.7 6.2 3.9 6.2 7.6v17.9c0 2.1-1.8 3.9-3.9 3.9z"/><path class="st5" d="M55.2 106.5H33.5c-.4 0-.8-.3-.8-.8s.3-.8.8-.8h21.7c.4 0 .8.3.8.8s-.4.8-.8.8zm-18.5 30.2c-.4 0-.8-.3-.8-.8v-23.4c0-.4.3-.8.8-.8s.8.3.8.8v23.4c-.1.4-.4.8-.8.8zm15.6 0c-.4 0-.8-.3-.8-.8v-23.4c0-.4.3-.8.8-.8s.8.3.8.8v23.4c0 .4-.3.8-.8.8zm-7.9-58.2c-4.9 0-8.3-5.6-8.3-10.6 0-1.9.2-4.4 2-6.1 1.5-1.6 3.7-2.4 6.3-2.4 2.6 0 4.7.8 6.2 2.3 1.8 1.8 2 4.3 2 6.2.1 5.1-3.3 10.6-8.2 10.6zm0-17.6c-2.2 0-4 .7-5.2 1.9-1.1 1.1-1.5 2.6-1.5 5.1 0 4.3 2.9 9.1 6.8 9.1s6.8-4.8 6.8-9.1c0-2.5-.5-4.1-1.6-5.2-1.4-1.1-3.2-1.8-5.3-1.8z"/><path class="st5" d="M41.5 66.1c-1.6 0-3.1 0-3.7-.1-.4 0-.7-.4-.7-.8s.4-.8.8-.7c2.9.1 7.7.1 8.6-.2.8-.3 1.6-1.9 1.9-2.6.1-.4.6-.6 1-.5.4.1.6.6.5 1-.1.3-1.1 2.9-2.8 3.5-1 .3-3.4.4-5.6.4z"/><path class="st7" d="M44.4 87c-1.4 0-2.5-1.1-2.5-2.5S43 82 44.4 82s2.5 1.1 2.5 2.5-1.1 2.5-2.5 2.5zm0-3.5c-.6 0-1 .5-1 1s.5 1 1 1c.6 0 1-.5 1-1s-.4-1-1-1z"/><path class="st7" d="M44.4 97.4c-.4 0-.8-.3-.8-.8V86.3c0-.4.3-.8.8-.8s.8.3.8.8v10.4c-.1.4-.4.7-.8.7z"/><path class="st0" d="M73 32.6c-.8 0-1.6-.2-2.3-.6-2.1-1.3-2.8-4-1.6-6.1.6-1 1.6-1.8 2.7-2 1.2-.3 2.4-.1 3.4.5 2.1 1.3 2.8 4 1.6 6.1-.8 1.4-2.3 2.1-3.8 2.1zm0-7.4c-.2 0-.5 0-.7.1-.8.2-1.4.7-1.8 1.4-.8 1.4-.4 3.2 1 4.1 1.4.8 3.2.4 4.1-1 .8-1.4.4-3.2-1-4.1-.6-.4-1.1-.5-1.6-.5z"/><path class="st0" d="M64.5 30.6c-.3 0-.6-.2-.7-.6-.1-.4.1-.8.5-.9l4.8-1.2c.4-.1.8.1.9.5.1.4-.1.8-.5.9l-4.8 1.2c-.1.1-.1.1-.2.1zM76.6 28c-.3 0-.6-.2-.7-.6-.1-.4.1-.8.5-.9l18-4.6c.4-.1.8.1.9.5.1.4-.1.8-.5.9l-18 4.6c-.1.1-.2.1-.2.1z"/><path class="st6" d="M73.1 14.3c-.4 0-.8-.3-.8-.8V9.3c0-.4.3-.8.8-.8s.8.3.8.8v4.2c0 .4-.3.8-.8.8zm18.6 18h-.1l-4.1-.8c-.4-.1-.7-.5-.6-.9s.5-.7.9-.6l4.1.8c.4.1.7.5.6.9-.1.3-.4.6-.8.6zM86.5 23c-.3 0-.6-.2-.7-.4-.2-.4 0-.8.4-1l3.9-1.7c.4-.2.8 0 1 .4.2.4 0 .8-.4 1L86.8 23h-.3zM81 16.6c-.1 0-.3 0-.4-.1-.3-.2-.5-.7-.2-1l2.3-3.5c.2-.3.7-.5 1-.2.3.2.5.7.2 1l-2.3 3.5c-.1.2-.3.3-.6.3zM54.6 32.3c-.4 0-.7-.3-.7-.6-.1-.4.2-.8.6-.9l4.1-.8c.4-.1.8.2.9.6.1.4-.2.8-.6.9l-4.1.8h-.2zm5.2-9.3c-.1 0-.2 0-.3-.1l-3.9-1.7c-.4-.2-.5-.6-.4-1 .2-.4.6-.6 1-.4l3.9 1.7c.4.2.5.6.4 1-.2.3-.5.5-.7.5zm5.5-6.4c-.2 0-.5-.1-.6-.3l-2.3-3.5c-.2-.3-.1-.8.2-1 .3-.2.8-.1 1 .2l2.3 3.5c.2.3.1.8-.2 1-.2 0-.3.1-.4.1z"/></g></g></g></svg>