<svg version="1.1" id="Layer_1" xmlns="http://www.w3.org/2000/svg" x="0" y="0" viewBox="0 0 104 164" xml:space="preserve" enable-background="new 0 0 104 164"><style>.st0{fill:#ebebeb}.st1{fill:#575756}.st7{fill:#f58220}</style><g id="Home-V2---desktop" transform="translate(-598 -956)"><g id="Page-1" transform="translate(598 956)"><path id="Fill-1" class="st0" d="M66.4 108.6h-5.1v-7.4H41.1v7.4H36c-.5 0-.8.4-.8.8v53.1h32.1v-53.1c0-.4-.4-.8-.9-.8"/><path id="Fill-3" class="st0" d="M51.1 74.9h-8.5v7.7c0 1 .6 1.8 1.5 2.2l5.4 2c1 .4 2.2.4 3.2 0l5.4-2c.9-.3 1.5-1.2 1.5-2.2v-7.7h-8.5"/><path class="st1" d="M67.3 163.3c-.4 0-.8-.3-.8-.8v-53.1c0-.1 0-.1-.1-.1H53.7c-.4 0-.8-.3-.8-.8s.3-.8.8-.8h12.7c.9 0 1.6.7 1.6 1.6v53.1c0 .6-.3.9-.7.9zm-32.2 0c-.4 0-.8-.3-.8-.8v-53.1c0-.9.7-1.6 1.6-1.6h9.4c.4 0 .8.3.8.8s-.3.8-.8.8H36c-.1 0-.1 0-.1.1v53.1c0 .4-.3.7-.8.7z"/><path d="M43.6 143.5c-.4 0-.8-.3-.8-.8v-27.1c0-.4.3-.8.8-.8s.8.3.8.8v27.1c-.1.5-.4.8-.8.8zm5.1 1.7c-.4 0-.8-.3-.8-.8v-28.8c0-.4.3-.8.8-.8s.8.3.8.8v28.8c-.1.5-.4.8-.8.8zm5 6.5c-.4 0-.8-.3-.8-.8v-35.3c0-.4.3-.8.8-.8s.8.3.8.8V151c0 .4-.3.7-.8.7zm5.1 2.2c-.4 0-.8-.3-.8-.8v-37.5c0-.4.3-.8.8-.8s.8.3.8.8v37.5c0 .5-.4.8-.8.8z" fill="#bcbcbb"/><path class="st1" d="M61.3 109.4c-.4 0-.8-.3-.8-.8V102H41.8v6.6c0 .4-.3.8-.8.8s-.8-.3-.8-.8v-7.4c0-.4.3-.8.8-.8h20.2c.4 0 .8.3.8.8v7.4c.1.4-.3.8-.7.8z"/><path d="M78.7 120.2c-.4 0-.7-.3-.7-.7v-2.9c0-.4.3-.7.7-.7s.7.3.7.7v2.9c.1.3-.3.7-.7.7zm4.5.4c-1.5 0-2.7-1.2-2.7-2.6s1.2-2.6 2.7-2.6 2.7 1.2 2.7 2.6-1.3 2.6-2.7 2.6zm0-3.8c-.7 0-1.2.5-1.2 1.2s.5 1.2 1.2 1.2 1.2-.5 1.2-1.2-.6-1.2-1.2-1.2zm-8.8 3.8c-1.5 0-2.7-1.2-2.7-2.6s1.2-2.6 2.7-2.6 2.7 1.2 2.7 2.6-1.2 2.6-2.7 2.6zm0-3.8c-.7 0-1.2.5-1.2 1.2s.5 1.2 1.2 1.2 1.2-.5 1.2-1.2-.5-1.2-1.2-1.2zm-57.8 3.4c-.4 0-.7-.3-.7-.7v-2.9c0-.4.3-.7.7-.7s.7.3.7.7v2.9c0 .3-.3.7-.7.7zm8.9 0c-.4 0-.7-.3-.7-.7v-2.9c0-.4.3-.7.7-.7s.7.3.7.7v2.9c.1.3-.3.7-.7.7zm-4.4.4c-1.5 0-2.7-1.2-2.7-2.6s1.2-2.6 2.7-2.6c1.5 0 2.7 1.2 2.7 2.6s-1.2 2.6-2.7 2.6zm0-3.8c-.7 0-1.2.5-1.2 1.2s.5 1.2 1.2 1.2 1.2-.5 1.2-1.2-.5-1.2-1.2-1.2zm8.8 3.8c-1.5 0-2.7-1.2-2.7-2.6s1.2-2.6 2.7-2.6c1.5 0 2.7 1.2 2.7 2.6s-1.3 2.6-2.7 2.6zm0-3.8c-.7 0-1.2.5-1.2 1.2s.5 1.2 1.2 1.2 1.2-.5 1.2-1.2-.6-1.2-1.2-1.2zm42.6 10.7c-.4 0-.8-.3-.8-.8v-3c0-.4.3-.8.8-.8s.8.3.8.8v3c-.1.5-.4.8-.8.8zm4.5.5c-1.5 0-2.7-1.2-2.7-2.7 0-1.5 1.2-2.7 2.7-2.7 1.5 0 2.7 1.2 2.7 2.7 0 1.5-1.2 2.7-2.7 2.7zm0-3.9c-.7 0-1.2.5-1.2 1.2s.5 1.2 1.2 1.2 1.2-.5 1.2-1.2-.6-1.2-1.2-1.2zm-46.1 3.4c-.4 0-.8-.3-.8-.8v-3c0-.4.3-.8.8-.8s.8.3.8.8v3c-.1.5-.4.8-.8.8zm-4.5.5c-1.5 0-2.7-1.2-2.7-2.7 0-1.5 1.2-2.7 2.7-2.7 1.5 0 2.7 1.2 2.7 2.7 0 1.5-1.2 2.7-2.7 2.7zm0-3.9c-.7 0-1.2.5-1.2 1.2s.5 1.2 1.2 1.2 1.2-.5 1.2-1.2-.6-1.2-1.2-1.2zm75.4-11.3c-.4 0-.8-.3-.8-.8v-3c0-.4.3-.8.8-.8s.8.3.8.8v3c-.1.4-.4.8-.8.8zm-4.4.4c-1.5 0-2.7-1.2-2.7-2.7s1.2-2.7 2.7-2.7c1.5 0 2.7 1.2 2.7 2.7s-1.2 2.7-2.7 2.7zm0-3.9c-.7 0-1.2.5-1.2 1.2s.5 1.2 1.2 1.2 1.2-.5 1.2-1.2-.5-1.2-1.2-1.2zm-25.6 3.4c-.4 0-.8-.3-.8-.8v-3c0-.4.3-.8.8-.8s.8.3.8.8v3c0 .5-.4.8-.8.8zm4.3.5c-1.5 0-2.7-1.2-2.7-2.7s1.2-2.7 2.7-2.7c1.5 0 2.7 1.2 2.7 2.7s-1.2 2.7-2.7 2.7zm0-3.9c-.7 0-1.2.5-1.2 1.2s.5 1.2 1.2 1.2 1.2-.5 1.2-1.2-.5-1.2-1.2-1.2zm10.6 3.5c-.4 0-.8-.3-.8-.8v-3c0-.4.3-.8.8-.8s.8.3.8.8v3c-.1.4-.4.8-.8.8zm-4.5.5c-1.5 0-2.7-1.2-2.7-2.7 0-1.5 1.2-2.7 2.7-2.7 1.5 0 2.7 1.2 2.7 2.7 0 1.4-1.2 2.7-2.7 2.7zm0-3.9c-.7 0-1.2.5-1.2 1.2s.5 1.2 1.2 1.2 1.2-.5 1.2-1.2-.5-1.2-1.2-1.2zm8.8 3.9c-1.5 0-2.7-1.2-2.7-2.7 0-1.5 1.2-2.7 2.7-2.7 1.5 0 2.7 1.2 2.7 2.7 0 1.4-1.2 2.7-2.7 2.7zm0-3.9c-.7 0-1.2.5-1.2 1.2s.5 1.2 1.2 1.2 1.2-.5 1.2-1.2-.6-1.2-1.2-1.2zm-61.9 3.8c-1.5 0-2.7-1.2-2.7-2.7s1.2-2.7 2.7-2.7c1.5 0 2.7 1.2 2.7 2.7s-1.2 2.7-2.7 2.7zm0-3.9c-.7 0-1.2.5-1.2 1.2s.5 1.2 1.2 1.2 1.2-.5 1.2-1.2-.6-1.2-1.2-1.2zm-21.3 3.9c-1.5 0-2.7-1.2-2.7-2.7s1.2-2.7 2.7-2.7c1.5 0 2.7 1.2 2.7 2.7s-1.3 2.7-2.7 2.7zm0-3.9c-.7 0-1.2.5-1.2 1.2s.5 1.2 1.2 1.2 1.2-.5 1.2-1.2-.6-1.2-1.2-1.2zm10.5 3.5c-.4 0-.8-.3-.8-.8v-3c0-.4.3-.8.8-.8s.8.3.8.8v3c-.1.4-.4.8-.8.8zm-4.5.5c-1.5 0-2.7-1.2-2.7-2.7 0-1.5 1.2-2.7 2.7-2.7 1.5 0 2.7 1.2 2.7 2.7 0 1.4-1.2 2.7-2.7 2.7zm0-3.9c-.7 0-1.2.5-1.2 1.2s.5 1.2 1.2 1.2 1.2-.5 1.2-1.2-.5-1.2-1.2-1.2zm8.8 3.9c-1.5 0-2.7-1.2-2.7-2.7 0-1.5 1.2-2.7 2.7-2.7 1.5 0 2.7 1.2 2.7 2.7 0 1.4-1.2 2.7-2.7 2.7zm0-3.9c-.7 0-1.2.5-1.2 1.2s.5 1.2 1.2 1.2 1.2-.5 1.2-1.2-.5-1.2-1.2-1.2zM11.1 97.9c-.4 0-.8-.3-.8-.8v-3c0-.4.3-.8.8-.8s.8.3.8.8v3c-.1.4-.4.8-.8.8zm4.6.4c-1.5 0-2.7-1.2-2.7-2.7 0-1.5 1.2-2.7 2.7-2.7 1.5 0 2.7 1.2 2.7 2.7 0 1.5-1.2 2.7-2.7 2.7zm0-3.9c-.7 0-1.2.5-1.2 1.2s.5 1.2 1.2 1.2 1.2-.5 1.2-1.2c0-.6-.5-1.2-1.2-1.2zm12 3.9c-1.5 0-2.7-1.2-2.7-2.7 0-1.5 1.2-2.7 2.7-2.7 1.5 0 2.7 1.2 2.7 2.7 0 1.5-1.3 2.7-2.7 2.7zm0-3.9c-.7 0-1.2.5-1.2 1.2s.5 1.2 1.2 1.2 1.2-.5 1.2-1.2c0-.6-.6-1.2-1.2-1.2zm11.2 3.5c-.4 0-.8-.3-.8-.8v-3c0-.4.3-.8.8-.8s.8.3.8.8v3c-.1.5-.4.8-.8.8zm9.2 0c-.4 0-.8-.3-.8-.8v-3c0-.4.3-.8.8-.8s.8.3.8.8v3c0 .5-.3.8-.8.8zm14.7 0c-.4 0-.8-.3-.8-.8v-3c0-.4.3-.8.8-.8s.8.3.8.8v3c-.1.5-.4.8-.8.8zm-5.4 0c-.4 0-.8-.3-.8-.8v-3c0-.4.3-.8.8-.8s.8.3.8.8v3c0 .5-.4.8-.8.8zm2.7 0c-.4 0-.8-.3-.8-.8v-3c0-.4.3-.8.8-.8s.8.3.8.8v3c-.1.5-.4.8-.8.8zm-37.1 0c-.4 0-.8-.3-.8-.8v-3c0-.4.3-.8.8-.8s.8.3.8.8v3c0 .5-.4.8-.8.8zm-2.7 0c-.4 0-.8-.3-.8-.8v-3c0-.4.3-.8.8-.8s.8.3.8.8v3c0 .5-.3.8-.8.8zm13.9.5c-1.5 0-2.7-1.2-2.7-2.7s1.2-2.7 2.7-2.7c1.5 0 2.7 1.2 2.7 2.7s-1.2 2.7-2.7 2.7zm0-3.9c-.7 0-1.2.5-1.2 1.2s.5 1.2 1.2 1.2 1.2-.5 1.2-1.2-.5-1.2-1.2-1.2zm9.3 3.9c-1.5 0-2.7-1.2-2.7-2.7S42 93 43.5 93c1.5 0 2.7 1.2 2.7 2.7s-1.2 2.7-2.7 2.7zm0-3.9c-.7 0-1.2.5-1.2 1.2s.5 1.2 1.2 1.2 1.2-.5 1.2-1.2-.5-1.2-1.2-1.2zm44.4 3.4c-.4 0-.8-.3-.8-.8v-3c0-.4.3-.8.8-.8s.8.3.8.8v3c0 .5-.4.8-.8.8zm-4.6.5c-1.5 0-2.7-1.2-2.7-2.7 0-1.5 1.2-2.7 2.7-2.7 1.5 0 2.7 1.2 2.7 2.7 0 1.5-1.2 2.7-2.7 2.7zm0-3.9c-.7 0-1.2.5-1.2 1.2s.5 1.2 1.2 1.2 1.2-.5 1.2-1.2-.6-1.2-1.2-1.2zM72.1 98c-.4 0-.8-.3-.8-.8v-3c0-.4.3-.8.8-.8s.8.3.8.8v3c-.1.4-.4.8-.8.8zm4.6.4c-1.5 0-2.7-1.2-2.7-2.7s1.2-2.7 2.7-2.7c1.5 0 2.7 1.2 2.7 2.7s-1.2 2.7-2.7 2.7zm0-3.9c-.7 0-1.2.5-1.2 1.2s.5 1.2 1.2 1.2 1.2-.5 1.2-1.2-.6-1.2-1.2-1.2zm-9.3 3.9c-1.5 0-2.7-1.2-2.7-2.7s1.2-2.7 2.7-2.7c1.5 0 2.7 1.2 2.7 2.7s-1.2 2.7-2.7 2.7zm0-3.9c-.7 0-1.2.5-1.2 1.2s.5 1.2 1.2 1.2 1.2-.5 1.2-1.2-.5-1.2-1.2-1.2zm13.5 10.8c-.4 0-.8-.3-.8-.8v-3c0-.4.3-.8.8-.8s.8.3.8.8v3c0 .5-.4.8-.8.8zm-4.3.5c-1.5 0-2.7-1.2-2.7-2.7 0-1.5 1.2-2.7 2.7-2.7 1.5 0 2.7 1.2 2.7 2.7 0 1.4-1.2 2.7-2.7 2.7zm0-3.9c-.7 0-1.2.5-1.2 1.2s.5 1.2 1.2 1.2 1.2-.5 1.2-1.2-.5-1.2-1.2-1.2zm-10.5 3.5c-.4 0-.8-.3-.8-.8v-3c0-.4.3-.8.8-.8s.8.3.8.8v3c-.1.4-.4.8-.8.8zm4.4.4c-1.5 0-2.7-1.2-2.7-2.7s1.2-2.7 2.7-2.7c1.5 0 2.7 1.2 2.7 2.7s-1.2 2.7-2.7 2.7zm0-3.9c-.7 0-1.2.5-1.2 1.2s.5 1.2 1.2 1.2 1.2-.5 1.2-1.2-.5-1.2-1.2-1.2zM32.4 90.4c-.4 0-.7-.3-.7-.7v-2.9c0-.4.3-.7.7-.7s.7.3.7.7v2.9c0 .4-.3.7-.7.7zm4.4.4c-1.5 0-2.7-1.2-2.7-2.6 0-1.5 1.2-2.6 2.7-2.6 1.5 0 2.7 1.2 2.7 2.6 0 1.5-1.2 2.6-2.7 2.6zm0-3.8c-.7 0-1.2.5-1.2 1.2 0 .6.5 1.2 1.2 1.2s1.2-.5 1.2-1.2c0-.6-.5-1.2-1.2-1.2zm-8.7 3.8c-1.5 0-2.7-1.2-2.7-2.6 0-1.5 1.2-2.6 2.7-2.6 1.5 0 2.7 1.2 2.7 2.6 0 1.5-1.3 2.6-2.7 2.6zm0-3.8c-.7 0-1.2.5-1.2 1.2 0 .6.5 1.2 1.2 1.2s1.2-.5 1.2-1.2c0-.6-.6-1.2-1.2-1.2zm13.1 3.5c-.4 0-.7-.3-.7-.7v-1.5c0-.4.3-.7.7-.7s.7.3.7.7v1.5c.1.4-.2.7-.7.7zm24 .4c-1.5 0-2.7-1.2-2.7-2.7 0-1.5 1.2-2.7 2.7-2.7s2.7 1.2 2.7 2.7c-.1 1.5-1.3 2.7-2.7 2.7zm0-3.9c-.6 0-1.2.5-1.2 1.2s.5 1.2 1.2 1.2 1.2-.5 1.2-1.2c-.1-.7-.6-1.2-1.2-1.2zm6.2 3.9c-1.5 0-2.7-1.2-2.7-2.7 0-1.5 1.2-2.7 2.7-2.7s2.7 1.2 2.7 2.7c0 1.5-1.2 2.7-2.7 2.7zm0-3.9c-.6 0-1.2.5-1.2 1.2s.5 1.2 1.2 1.2 1.2-.5 1.2-1.2-.5-1.2-1.2-1.2zm-10.9 3.5c-.4 0-.7-.3-.7-.7v-1.5c0-.4.3-.7.7-.7s.7.3.7.7v1.5c0 .4-.3.7-.7.7zm-7.7 7.9c-1.5 0-2.7-1.2-2.7-2.7s1.2-2.7 2.7-2.7c1.5 0 2.7 1.2 2.7 2.7s-1.2 2.7-2.7 2.7zm0-3.9c-.7 0-1.2.5-1.2 1.2s.5 1.2 1.2 1.2 1.2-.5 1.2-1.2-.6-1.2-1.2-1.2zm-37.7 10.8c-.4 0-.8-.3-.8-.8v-3c0-.4.3-.8.8-.8s.8.3.8.8v3c0 .5-.4.8-.8.8zm4.3.5c-1.5 0-2.7-1.2-2.7-2.7s1.2-2.7 2.7-2.7c1.5 0 2.7 1.2 2.7 2.7s-1.2 2.7-2.7 2.7zm0-3.9c-.7 0-1.2.5-1.2 1.2s.5 1.2 1.2 1.2 1.2-.5 1.2-1.2-.5-1.2-1.2-1.2zm10.6 3.4c-.4 0-.8-.3-.8-.8v-3c0-.4.3-.8.8-.8s.8.3.8.8v3c-.1.5-.4.8-.8.8zm-4.5.5c-1.5 0-2.7-1.2-2.7-2.7s1.2-2.7 2.7-2.7c1.5 0 2.7 1.2 2.7 2.7s-1.2 2.7-2.7 2.7zm0-3.9c-.7 0-1.2.5-1.2 1.2s.5 1.2 1.2 1.2 1.2-.5 1.2-1.2-.5-1.2-1.2-1.2zm8.8 3.9c-1.5 0-2.7-1.2-2.7-2.7s1.2-2.7 2.7-2.7c1.5 0 2.7 1.2 2.7 2.7s-1.2 2.7-2.7 2.7zm0-3.9c-.7 0-1.2.5-1.2 1.2s.5 1.2 1.2 1.2 1.2-.5 1.2-1.2-.6-1.2-1.2-1.2z" fill="#bbbbba"/><path d="M59.1 75.6c-.4 0-.8-.3-.8-.8v-3.1c0-5.4 2.2-10.9 6.3-15.3 3-3.3 4.7-7.7 4.7-12.2 0-5-2-9.6-5.5-13-3.6-3.5-8.2-5.3-13.2-5.1-9.7.3-17.8 8.7-17.6 18.4.1 4.6 1.9 9 5.1 12.3 3.8 3.9 5.9 9.3 5.9 15.3v2.7c0 .4-.3.8-.8.8s-.8-.3-.8-.8v-2.7c0-5.6-1.9-10.7-5.5-14.3-3.5-3.6-5.5-8.4-5.5-13.4-.2-10.5 8.6-19.7 19.1-20 5.4-.1 10.4 1.8 14.3 5.5 3.8 3.7 6 8.8 6 14.1 0 4.9-1.8 9.6-5.1 13.2-3.8 4.2-5.9 9.3-5.9 14.3v3.1c0 .6-.3 1-.7 1z" fill="#58595b"/><path d="M51.2 87.8c-.8 0-1.6-.1-2.4-.4l-5-1.9c-1.1-.4-1.9-1.5-1.9-2.7V75c0-.4.3-.8.8-.8h17c.4 0 .8.3.8.8v7.8c0 1.2-.7 2.3-1.9 2.7l-4.9 1.9c-.9.2-1.7.4-2.5.4zm-7.8-12.1v7.1c0 .6.4 1.1.9 1.3l5 1.9a5 5 0 003.8 0l4.9-2c.5-.2.9-.7.9-1.3v-7.1H43.4z" fill="#4d5152"/><path d="M51.2 16.8c-.4 0-.8-.3-.8-.8V.8c0-.4.3-.8.8-.8s.8.3.8.8v15.3c0 .4-.4.7-.8.7zm31.2 44c-.1 0-.2 0-.3-.1L78.3 59c-.4-.2-.5-.6-.4-1 .2-.4.6-.5 1-.4l3.7 1.7c.4.2.5.6.4 1-.1.3-.3.5-.6.5zm-1.9-20.9c-.3 0-.7-.2-.7-.6-.1-.4.2-.8.6-.9l8.1-1.9c.4-.1.8.2.9.6.1.4-.2.8-.6.9l-8.1 1.9h-.2zM70.1 23.5c-.2 0-.3-.1-.5-.2-.3-.3-.4-.7-.1-1.1l7.9-9.7c.3-.3.7-.4 1.1-.1.3.3.4.7.1 1.1l-7.9 9.7c-.1.2-.3.3-.6.3zM20 60.8c-.3 0-.6-.2-.7-.4-.2-.4 0-.8.4-1l3.7-1.7c.4-.2.8 0 1 .4.2.4 0 .8-.4 1l-3.7 1.7H20zm1.9-20.9h-.2L13.6 38c-.4-.1-.7-.5-.6-.9.1-.4.5-.7.9-.6l8.1 1.9c.4.1.7.5.6.9 0 .4-.3.6-.7.6zm10.4-16.4c-.2 0-.4-.1-.6-.3l-7.9-9.7c-.3-.3-.2-.8.1-1.1.3-.3.8-.2 1.1.1l7.9 9.7c.3.3.2.8-.1 1.1-.2.1-.4.2-.5.2z" fill="#e98300"/><path class="st7" d="M51.1 57.3C45.8 57.3 41 54 39 49c-.2-.4 0-.8.4-1 .4-.2.8 0 1 .4 1.8 4.6 6.3 7.5 11.3 7.3.4 0 .8.3.8.7 0 .4-.3.8-.7.8-.3.1-.5.1-.7.1z"/><path class="st7" d="M53.3 57.2c-.2 0-.4-.1-.5-.2l-1.9-1.8c-.3-.3-.3-.8 0-1.1.3-.3.8-.3 1.1 0l1.9 1.8c.3.3.3.8 0 1.1-.1.1-.3.2-.6.2z"/><path class="st7" d="M51.6 59.1c-.2 0-.4-.1-.5-.2-.3-.3-.3-.8 0-1.1l1.8-1.9c.3-.3.8-.3 1.1 0 .3.3.3.8 0 1.1l-1.8 1.9c-.2.1-.4.2-.6.2zm5.9-3.6c-.3 0-.5-.1-.6-.4-.2-.4-.1-.8.3-1 4.5-2.7 6.6-8.2 5.1-13.2-.1-.4.1-.8.5-.9.4-.1.8.1.9.5 1.7 5.7-.6 11.9-5.7 15-.2-.1-.4 0-.5 0z"/><path class="st7" d="M61.2 42.1c-.1 0-.2 0-.4-.1-.4-.2-.5-.6-.3-1l1.2-2.3c.2-.4.6-.5 1-.3s.5.6.3 1l-1.2 2.3c-.1.3-.3.4-.6.4z"/><path class="st7" d="M64.7 41c-.1 0-.2 0-.4-.1L62 39.7c-.4-.2-.5-.6-.3-1s.6-.5 1-.3l2.3 1.2c.4.2.5.6.3 1 0 .3-.3.4-.6.4zm-4.9-4.8c-.2 0-.4-.1-.5-.2-3.8-3.7-9.5-4.4-14.1-1.7-.4.2-.8.1-1-.3-.2-.4-.1-.8.3-1 5.1-3.1 11.7-2.3 15.9 1.9.3.3.3.8 0 1.1-.2.1-.4.2-.6.2z"/><path class="st7" d="M45.9 35.9h-.2l-2.6-.6c-.4-.1-.6-.5-.5-.9.1-.4.5-.6.9-.5l2.6.6c.4.1.6.5.5.9 0 .3-.3.5-.7.5z"/><path class="st7" d="M43.4 35.3h-.2c-.4-.1-.6-.5-.5-.9l.6-2.6c.1-.4.5-.6.9-.5.4.1.6.5.5.9l-.6 2.6c-.1.2-.4.5-.7.5zm-4.5 8.4c-.5 0-.8-.4-.7-.8.3-2.4 1.1-4 2.4-4.6 1.4-.6 3 0 3.6.5l1.2.8c.3.2.4.7.2 1-.2.3-.7.4-1 .2l-1.2-.8c-.3-.2-1.4-.7-2.2-.4-.8.4-1.3 1.5-1.5 3.4-.1.4-.4.7-.8.7z"/><path class="st7" d="M38.7 45.3c-.2 0-.4-.1-.6-.3-.3-.3-.2-.8.1-1.1l2.1-1.7c.3-.3.8-.2 1.1.1.3.3.2.8-.1 1.1l-2.1 1.7c-.1.1-.3.2-.5.2z"/><path class="st7" d="M38.7 45.3c-.2 0-.4-.1-.6-.3l-1.6-2c-.3-.3-.2-.8.1-1.1s.8-.2 1.1.1l1.7 2.1c.3.3.2.8-.1 1.1-.2 0-.4.1-.6.1z"/><g id="Group-177" transform="translate(0 162.423)"><defs><filter id="Adobe_OpacityMaskFilter" filterUnits="userSpaceOnUse" x="0" y="-.5" width="104.7" height="1.5"><feColorMatrix values="1 0 0 0 0 0 1 0 0 0 0 0 1 0 0 0 0 0 1 0"/></filter></defs><mask maskUnits="userSpaceOnUse" x="0" y="-.5" width="104.7" height="1.5" id="mask-2_3_"><g filter="url(#Adobe_OpacityMaskFilter)"><path id="path-1_3_" fill="#fff" d="M.8.2h103.1V1H.8z"/></g></mask><path d="M103.9 1H.8C.3 1 0 .7 0 .2s.3-.8.8-.8H104c.4 0 .8.3.8.8s-.5.8-.9.8z" mask="url(#mask-2_3_)" fill="#575756"/></g></g></g></svg>