<svg version="1.1" id="Layer_1" xmlns="http://www.w3.org/2000/svg" x="0" y="0" viewBox="0 0 118 125" xml:space="preserve" enable-background="new 0 0 118 125"><style>.st0{fill:#ebebeb}.st1{fill:#f58220}.st2{fill:#58595b}</style><g id="Home-V2---desktop" transform="translate(-779 -1312)"><g id="Page-1" transform="translate(779 1312)"><path id="Fill-1" class="st0" d="M24.2 50.3l-.9.5c-1.6 1-3.6 1-5.3 0L7 44.1C2.8 41.6.4 36.8.8 32L3.1 6c.2-2 1.7-3.7 3.7-4C10.3 1.5 15.9.8 20.7.8c4.8 0 10.4.7 13.9 1.2 2 .3 3.5 1.9 3.7 4l2.3 26c.4 4.9-2 9.6-6.2 12.2l-10.2 6.1z"/><path class="st1" d="M69.7 79c-.4 0-.8-.3-.8-.8 0-2.9-2.1-5.5-5-6.1-.4-.1-.7-.5-.6-.9s.5-.7.9-.6c3.6.7 6.2 3.9 6.2 7.6.1.5-.3.8-.7.8z"/><path class="st1" d="M66.6 100.1H51.2c-2.2 0-3.9-1.8-3.9-3.9V78.3c0-3.6 2.6-6.8 6.2-7.6.4-.1.8.2.9.6s-.2.8-.6.9c-2.9.6-5 3.1-5 6.1v17.9c0 1.3 1.1 2.4 2.4 2.4h15.4c1.3 0 2.4-1.1 2.4-2.4V78.3c0-2.9-2.1-5.5-5-6.1-.4-.1-.7-.5-.6-.9.1-.4.5-.7.9-.6 3.6.7 6.2 3.9 6.2 7.6v17.9c0 2.1-1.8 3.9-3.9 3.9z"/><path class="st1" d="M69.7 93.3H48c-.4 0-.8-.3-.8-.8s.3-.8.8-.8h21.7c.4 0 .8.3.8.8s-.4.8-.8.8zm-18.5 31c-.4 0-.8-.3-.8-.8V99.3c0-.4.3-.8.8-.8s.8.3.8.8v24.3c-.1.4-.4.7-.8.7zm15.6 0c-.4 0-.8-.3-.8-.8V99.3c0-.4.3-.8.8-.8s.8.3.8.8v24.3c0 .4-.3.7-.8.7zm-7.9-59c-4.9 0-8.3-5.6-8.3-10.6 0-1.9.2-4.4 2-6.1 1.5-1.6 3.7-2.4 6.3-2.4 2.6 0 4.7.8 6.2 2.3 1.8 1.8 2 4.3 2 6.2.1 5-3.3 10.6-8.2 10.6zm0-17.6c-2.2 0-4 .7-5.2 1.9-1.1 1.1-1.5 2.6-1.5 5.1 0 4.3 2.9 9.1 6.8 9.1s6.8-4.8 6.8-9.1c0-2.5-.5-4.1-1.6-5.2-1.4-1.1-3.2-1.8-5.3-1.8z"/><path class="st1" d="M54.9 52.9c-2 0-3.9 0-4.6-.1-.4 0-.7-.4-.7-.8s.4-.7.8-.7c3.6.1 9.6.1 10.6-.2.8-.3 1.6-1.9 1.9-2.6.1-.4.6-.6 1-.5.4.1.6.6.5 1-.1.3-1.1 2.9-2.8 3.5-1 .3-4 .4-6.7.4zm4 20.9c-1.4 0-2.5-1.1-2.5-2.5s1.1-2.5 2.5-2.5 2.5 1.1 2.5 2.5-1.1 2.5-2.5 2.5zm0-3.5c-.6 0-1 .5-1 1s.5 1 1 1c.6 0 1-.5 1-1s-.4-1-1-1z"/><path class="st1" d="M58.9 84.2c-.4 0-.8-.3-.8-.8V73.1c0-.4.3-.8.8-.8s.8.3.8.8v10.4c-.1.4-.4.7-.8.7z"/><path class="st2" d="M27.6 36.6c-2.3 0-4.1-.6-5.6-1.9-2.7-2.4-2.8-6.3-2.8-6.4 0-.4.3-.7.7-.8.4 0 .7.3.8.7 0 0 0 3.3 2.3 5.3 1.4 1.2 3.4 1.7 6 1.4.4-.1.8.2.8.7 0 .4-.2.8-.7.8-.4.2-.9.2-1.5.2zM29 12c-.1 0-.2 0-.4-.1-5.1-2.7-11.6-2.8-16.8-.1-.4.2-.8 0-1-.3-.2-.4 0-.8.3-1 5.7-2.8 12.7-2.8 18.3.2.4.2.5.6.3 1-.1.2-.4.3-.7.3zM7.1 20.8c-.1 0-.3 0-.4-.1-.4-.2-.5-.7-.2-1 .8-1.2 1.7-2.3 2.7-3.2 3-2.8 6.9-4.3 10.9-4.3 4.1 0 8 1.5 11 4.3.9.9 1.7 1.8 2.4 2.8.2.3.1.8-.2 1-.3.2-.8.1-1-.2-.6-.9-1.4-1.8-2.2-2.6-2.7-2.5-6.2-3.9-9.9-3.9S13 15 10.3 17.5c-.9.9-1.8 1.9-2.4 2.9-.4.3-.6.4-.8.4z"/><path class="st2" d="M17.5 40.6c-.2 0-.4-.1-.5-.2-5.1-4.5-5.4-10.9-5.4-12.2v-.7c.4-4.4 4.1-7.8 8.4-7.8 2.1 0 4.2.8 5.7 2.2 1.6 1.4 2.5 3.4 2.7 5.5v.5c.1.4-.2.8-.6.9-.4.1-.8-.2-.9-.5 0-.1 0-.2-.1-.4v-.2c-.1-1.8-.9-3.4-2.2-4.6-1.3-1.2-3-1.8-4.7-1.8-3.6 0-6.6 2.8-6.9 6.4v.6c0 1.1.2 6.9 4.9 11 .3.3.3.7.1 1.1-.1.2-.3.2-.5.2z"/><path class="st2" d="M25.5 40.3h-.1c-2.2-.4-4.2-1.3-5.8-2.7-3.9-3.5-4.1-8.7-4.1-9.3v-.1c0-2.5 2.1-4.5 4.6-4.5 2.5 0 4.5 2 4.6 4.4v.1c0 1.7 1.4 3.1 3.1 3.1.8 0 1.5-.3 2-.9.7-.7 1-1.8 1-3.1-.4-5.5-5.2-9.9-10.7-9.9-2.7 0-5.3 1-7.3 2.9-1.9 1.7-3.1 4.1-3.4 6.6l-.1 1.4c0 .8.1 2.9.9 5.5.1.4-.1.8-.5.9-.4.1-.8-.1-.9-.5-.8-2.8-.9-5.1-.9-6l.1-1.4c.3-2.9 1.7-5.6 3.9-7.6C14 17.1 17 16 20.1 16c6.4 0 11.7 5 12.2 11.3.1 1.7-.4 3.2-1.4 4.2-.8.8-1.9 1.3-3.1 1.3-2.5 0-4.5-2-4.6-4.5v-.1c0-1.7-1.4-3.1-3.1-3.1-1.7 0-3.1 1.4-3.1 3.1 0 .7.2 5.1 3.6 8.1 1.4 1.2 3.1 2 5.1 2.3.4.1.7.5.6.9-.2.5-.5.8-.8.8zm2.3 8.6c-.3 0-.5-.1-.6-.4-.2-.4-.1-.8.3-1l1.5-.9c.4-.2.8-.1 1 .3.2.4.1.8-.3 1l-1.5.9c-.1.1-.2.1-.4.1z"/><path class="st2" d="M20.7 52.3c-1 0-2.1-.3-3-.8L6.6 44.7C2.2 42-.4 37 .1 31.8l2.3-26c.2-2.4 2-4.3 4.4-4.6C10.5.7 16 0 20.7 0c4.7 0 10.2.7 14 1.2 2.4.4 4.1 2.3 4.4 4.6l.8 8.9c0 .4-.3.8-.7.8-.4 0-.8-.3-.8-.7L37.6 6c-.2-1.7-1.4-3-3.1-3.3-3.7-.6-9.2-1.2-13.8-1.2-4.6 0-10 .7-13.8 1.2C5.3 3 4 4.3 3.9 6L1.5 32c-.4 4.6 1.9 9.1 5.8 11.4l11.1 6.7c1.4.8 3.1.8 4.5 0l.9-.5c.4-.2.8-.1 1 .3.2.4.1.8-.3 1l-.9.5c-.8.6-1.8.9-2.9.9z"/><path class="st2" d="M34.5 44.9c-.3 0-.5-.1-.6-.4-.2-.4-.1-.8.3-1 3.9-2.4 6.2-6.9 5.8-11.4L38.5 15c0-.4.3-.8.7-.8.4 0 .8.3.8.7L41.5 32c.5 5.1-2.1 10.2-6.5 12.9-.2-.1-.4 0-.5 0z"/><path id="Fill-37" class="st0" d="M100.7 50.3l-.9.5c-1.6 1-3.6 1-5.3 0l-11.1-6.7c-4.2-2.5-6.6-7.3-6.2-12.2l2.3-26c.2-2 1.7-3.7 3.7-4C86.7 1.4 92.3.7 97.1.7s10.4.7 13.9 1.2c2 .3 3.5 1.9 3.7 4l2.3 26c.4 4.9-2 9.6-6.2 12.2l-10.1 6.2z"/><path class="st2" d="M96.4 32.1h-9c-1.6 0-2.9-1.3-2.9-2.9v-6.8c0-.9.8-1.7 1.7-1.7h11.3c.9 0 1.7.8 1.7 1.7v6.8c.1 1.6-1.2 2.9-2.8 2.9zm-10.1-9.9c-.1 0-.2.1-.2.2v6.8c0 .8.6 1.4 1.4 1.4h9c.8 0 1.4-.6 1.4-1.4v-6.8c0-.1-.1-.2-.2-.2H86.3z"/><path class="st2" d="M87.6 22.2c-.4 0-.8-.3-.8-.8v-5.8c0-2.8 2.3-5.1 5.1-5.1s5.1 2.3 5.1 5.1v1.3c0 .4-.3.8-.8.8s-.8-.3-.8-.8v-1.3c0-2-1.6-3.6-3.6-3.6s-3.6 1.6-3.6 3.6v5.8c.1.4-.2.8-.6.8zm4.4 5.5c-.4 0-.8-.3-.8-.8v-1.4c0-.4.3-.8.8-.8s.8.3.8.8V27c-.1.4-.4.7-.8.7zM105.5 39c-2.4 0-4.3-1.9-4.3-4.3s1.9-4.3 4.3-4.3 4.3 1.9 4.3 4.3-1.9 4.3-4.3 4.3zm0-7.1c-1.5 0-2.8 1.3-2.8 2.8s1.3 2.8 2.8 2.8 2.8-1.3 2.8-2.8-1.3-2.8-2.8-2.8z"/><path class="st2" d="M105.5 31.9c-.4 0-.8-.3-.8-.8v-8.7c0-.4.3-.8.8-.8s.8.3.8.8v8.7c-.1.5-.4.8-.8.8z"/><path class="st2" d="M105.5 25.6h-2c-.4 0-.8-.3-.8-.8s.3-.8.8-.8h2c.4 0 .8.3.8.8s-.4.8-.8.8zm-1.2 23.3c-.3 0-.5-.1-.6-.4-.2-.4-.1-.8.3-1l1.5-.9c.4-.2.8-.1 1 .3.2.4.1.8-.3 1l-1.5.9c-.1.1-.3.1-.4.1z"/><path class="st2" d="M97.2 52.3c-1 0-2.1-.3-3-.8L83 44.7c-4.4-2.7-7-7.7-6.5-12.9l2.3-26c.2-2.4 2-4.3 4.4-4.6C87 .7 92.5 0 97.2 0c4.7 0 10.2.7 14 1.2 2.4.4 4.1 2.3 4.4 4.6l.8 8.9c0 .4-.3.8-.7.8-.4 0-.8-.3-.8-.7l-.8-8.8c-.1-1.7-1.4-3-3.1-3.3-3.7-.6-9.2-1.2-13.8-1.2-4.6 0-10 .7-13.8 1.2-1.7.3-2.9 1.6-3.1 3.3L78 32c-.4 4.6 1.9 9.1 5.8 11.4l11.1 6.7c1.4.8 3.1.8 4.5 0l.9-.5c.4-.2.8-.1 1 .3.2.4.1.8-.3 1l-.9.5c-.8.6-1.9.9-2.9.9z"/><path class="st2" d="M111 44.9c-.3 0-.5-.1-.6-.4-.2-.4-.1-.8.3-1 3.9-2.4 6.2-6.9 5.8-11.4L115 15c0-.4.3-.8.7-.8.4 0 .8.3.8.7L118 32c.5 5.1-2.1 10.2-6.5 12.9-.3-.1-.4 0-.5 0z"/><g id="Group-59" transform="translate(6 123.434)"><defs><filter id="Adobe_OpacityMaskFilter" filterUnits="userSpaceOnUse" x="0" y="-.5" width="104.7" height="1.5"><feColorMatrix values="1 0 0 0 0 0 1 0 0 0 0 0 1 0 0 0 0 0 1 0"/></filter></defs><mask maskUnits="userSpaceOnUse" x="0" y="-.5" width="104.7" height="1.5" id="mask-2_3_"><g filter="url(#Adobe_OpacityMaskFilter)"><path id="path-1_3_" fill="#fff" d="M.7.3h103.2V1H.7z"/></g></mask><path d="M103.9 1H.7C.3 1 0 .7 0 .2s.3-.8.8-.8H104c.4 0 .8.3.8.8s-.5.8-.9.8z" mask="url(#mask-2_3_)" fill="#575756"/></g></g></g></svg>